HIERARCHY
ROOT Hips
{
	OFFSET 0.000000 35.082581 0.000000
	CHANNELS 6 Xposition Yposition Zposition Xrotation Yrotation Zrotation 
	JOINT Spine
	{
		OFFSET 0.000000 6.876099 0.125700
		CHANNELS 3 Xrotation Yrotation Zrotation
		JOINT Spine1
		{
			OFFSET 0.000000 5.730043 0.104720
			CHANNELS 3 Xrotation Yrotation Zrotation
			JOINT Spine1_split
			{
				OFFSET 0.000000 5.730043 0.104720
				CHANNELS 3 Xrotation Yrotation Zrotation
				JOINT Spine2
				{
					OFFSET 0.000000 5.730043 0.104720
					CHANNELS 3 Xrotation Yrotation Zrotation
					JOINT Neck
					{
						OFFSET 0.000000 10.314075 0.188496
						CHANNELS 3 Xrotation Yrotation Zrotation
						JOINT Head
						{
							OFFSET 0.000000 7.643700 -2.377400
							CHANNELS 3 Xrotation Yrotation Zrotation
							JOINT HeadTop_End
							{
								OFFSET 0.000000 43.788605 -13.619600
								CHANNELS 3 Xrotation Yrotation Zrotation
								End Site
								{
									OFFSET 0.000000 0.000000 0.000000
								}
							}
						}
					}
					JOINT LeftShoulder
					{
						OFFSET 2.196100 4.412489 0.087492
						CHANNELS 3 Xrotation Yrotation Zrotation
						JOINT LeftShoulder_split
						{
							OFFSET 2.196100 4.412489 0.087492
							CHANNELS 3 Xrotation Yrotation Zrotation
							JOINT LeftArm
							{
								OFFSET 8.771219 -2.981674 -0.026999
								CHANNELS 3 Xrotation Yrotation Zrotation
								JOINT LeftForeArm
								{
									OFFSET 8.512804 0.000000 -0.000000
									CHANNELS 3 Xrotation Yrotation Zrotation
									JOINT LeftHand
									{
										OFFSET 18.484802 0.000000 -0.000000
										CHANNELS 3 Xrotation Yrotation Zrotation
										JOINT LeftHandThumb1
										{
											OFFSET 2.499420 -1.158070 2.653252
											CHANNELS 3 Xrotation Yrotation Zrotation
											JOINT LeftHandThumb2
											{
												OFFSET 2.370079 -1.368366 1.368366
												CHANNELS 3 Xrotation Yrotation Zrotation
												JOINT LeftHandThumb3
												{
													OFFSET 2.676727 -1.545410 1.545409
													CHANNELS 3 Xrotation Yrotation Zrotation
													JOINT LeftHandThumb4
													{
														OFFSET 1.692226 -0.977005 0.977007
														CHANNELS 3 Xrotation Yrotation Zrotation
														End Site
														{
															OFFSET 0.000000 0.000000 0.000000
														}
													}
												}
											}
										}
										JOINT LeftHandIndex1
										{
											OFFSET 7.924831 -0.457527 2.345128
											CHANNELS 3 Xrotation Yrotation Zrotation
											JOINT LeftHandIndex2
											{
												OFFSET 3.643303 0.000000 0.000000
												CHANNELS 3 Xrotation Yrotation Zrotation
												JOINT LeftHandIndex3
												{
													OFFSET 3.810799 0.000000 0.000000
													CHANNELS 3 Xrotation Yrotation Zrotation
													JOINT LeftHandIndex4
													{
														OFFSET 2.403702 0.000000 0.000000
														CHANNELS 3 Xrotation Yrotation Zrotation
														End Site
														{
															OFFSET 0.000000 0.000000 0.000000
														}
													}
												}
											}
										}
										JOINT LeftHandMiddle1
										{
											OFFSET 8.563995 0.000000 -0.000000
											CHANNELS 3 Xrotation Yrotation Zrotation
											JOINT LeftHandMiddle2
											{
												OFFSET 3.861618 0.000000 0.000000
												CHANNELS 3 Xrotation Yrotation Zrotation
												JOINT LeftHandMiddle3
												{
													OFFSET 3.701603 0.000000 0.000000
													CHANNELS 3 Xrotation Yrotation Zrotation
													JOINT LeftHandMiddle4
													{
														OFFSET 2.322544 0.000000 0.000000
														CHANNELS 3 Xrotation Yrotation Zrotation
														End Site
														{
															OFFSET 0.000000 0.000000 0.000000
														}
													}
												}
											}
										}
										JOINT LeftHandRing1
										{
											OFFSET 8.426460 -0.424637 -3.286992
											CHANNELS 3 Xrotation Yrotation Zrotation
											JOINT LeftHandRing2
											{
												OFFSET 3.126408 0.000000 0.000000
												CHANNELS 3 Xrotation Yrotation Zrotation
												JOINT LeftHandRing3
												{
													OFFSET 3.085026 0.000000 0.000000
													CHANNELS 3 Xrotation Yrotation Zrotation
													JOINT LeftHandRing4
													{
														OFFSET 1.644005 0.000000 0.000000
														CHANNELS 3 Xrotation Yrotation Zrotation
														End Site
														{
															OFFSET 0.000000 0.000000 0.000000
														}
													}
												}
											}
										}
									}
								}
							}
						}
					}
					JOINT RightShoulder
					{
						OFFSET -2.196100 4.412496 0.070690
						CHANNELS 3 Xrotation Yrotation Zrotation
						JOINT RightShoulder_split
						{
							OFFSET -2.196100 4.412496 0.070690
							CHANNELS 3 Xrotation Yrotation Zrotation
							JOINT RightArm
							{
								OFFSET -8.771282 -2.981682 -0.094208
								CHANNELS 3 Xrotation Yrotation Zrotation
								JOINT RightForeArm
								{
									OFFSET -8.494598 0.000000 0.000000
									CHANNELS 3 Xrotation Yrotation Zrotation
									JOINT RightHand
									{
										OFFSET -18.483803 0.000000 0.000001
										CHANNELS 3 Xrotation Yrotation Zrotation
										JOINT RightHandThumb1
										{
											OFFSET -2.527351 -1.008072 2.575253
											CHANNELS 3 Xrotation Yrotation Zrotation
											JOINT RightHandThumb2
											{
												OFFSET -2.321518 -1.340328 1.340329
												CHANNELS 3 Xrotation Yrotation Zrotation
												JOINT RightHandThumb3
												{
													OFFSET -2.657753 -1.534454 1.534455
													CHANNELS 3 Xrotation Yrotation Zrotation
													JOINT RightHandThumb4
													{
														OFFSET -1.807510 -1.043568 1.043567
														CHANNELS 3 Xrotation Yrotation Zrotation
														End Site
														{
															OFFSET 0.000000 0.000000 0.000000
														}
													}
												}
											}
										}
										JOINT RightHandIndex1
										{
											OFFSET -8.811420 0.015533 2.887987
											CHANNELS 3 Xrotation Yrotation Zrotation
											JOINT RightHandIndex2
											{
												OFFSET -3.537502 0.000000 0.000000
												CHANNELS 3 Xrotation Yrotation Zrotation
												JOINT RightHandIndex3
												{
													OFFSET -3.356201 0.000000 0.000000
													CHANNELS 3 Xrotation Yrotation Zrotation
													JOINT RightHandIndex4
													{
														OFFSET -1.933098 0.000000 0.000000
														CHANNELS 3 Xrotation Yrotation Zrotation
														End Site
														{
															OFFSET 0.000000 0.000000 0.000000
														}
													}
												}
											}
										}
										JOINT RightHandMiddle1
										{
											OFFSET -8.178135 0.000000 0.000000
											CHANNELS 3 Xrotation Yrotation Zrotation
											JOINT RightHandMiddle2
											{
												OFFSET -3.901302 0.000000 0.000000
												CHANNELS 3 Xrotation Yrotation Zrotation
												JOINT RightHandMiddle3
												{
													OFFSET -3.909599 0.000000 0.000000
													CHANNELS 3 Xrotation Yrotation Zrotation
													JOINT RightHandMiddle4
													{
														OFFSET -2.376003 0.000000 0.000000
														CHANNELS 3 Xrotation Yrotation Zrotation
														End Site
														{
															OFFSET 0.000000 0.000000 0.000000
														}
													}
												}
											}
										}
										JOINT RightHandRing1
										{
											OFFSET -7.559013 0.014137 -2.865403
											CHANNELS 3 Xrotation Yrotation Zrotation
											JOINT RightHandRing2
											{
												OFFSET -3.449306 0.000000 0.000000
												CHANNELS 3 Xrotation Yrotation Zrotation
												JOINT RightHandRing3
												{
													OFFSET -3.362106 0.000000 0.000000
													CHANNELS 3 Xrotation Yrotation Zrotation
													JOINT RightHandRing4
													{
														OFFSET -2.076401 0.000000 0.000000
														CHANNELS 3 Xrotation Yrotation Zrotation
														End Site
														{
															OFFSET 0.000000 0.000000 0.000000
														}
													}
												}
											}
										}
									}
								}
							}
						}
					}
				}
			}
		}
	}
	JOINT LeftUpLeg
	{
		OFFSET 10.205400 -3.823500 0.155100
		CHANNELS 3 Xrotation Yrotation Zrotation
		JOINT LeftLeg
		{
			OFFSET 0.708757 -12.982077 0.567790
			CHANNELS 3 Xrotation Yrotation Zrotation
			JOINT LeftFoot
			{
				OFFSET -0.708756 -10.717838 -2.184338
				CHANNELS 3 Xrotation Yrotation Zrotation
				JOINT LeftToeBase
				{
					OFFSET 0.108149 -7.191104 7.560241
					CHANNELS 3 Xrotation Yrotation Zrotation
					JOINT LeftToe_End
					{
						OFFSET 0.070230 0.081724 4.490308
						CHANNELS 3 Xrotation Yrotation Zrotation
						End Site
						{
							OFFSET 0.000000 0.000000 0.000000
						}
					}
				}
			}
		}
	}
	JOINT RightUpLeg
	{
		OFFSET -10.205400 -3.823500 0.005500
		CHANNELS 3 Xrotation Yrotation Zrotation
		JOINT RightLeg
		{
			OFFSET -0.708756 -12.982134 0.610632
			CHANNELS 3 Xrotation Yrotation Zrotation
			JOINT RightFoot
			{
				OFFSET 0.708754 -10.717769 -1.945823
				CHANNELS 3 Xrotation Yrotation Zrotation
				JOINT RightToeBase
				{
					OFFSET -0.108140 -7.191069 7.372968
					CHANNELS 3 Xrotation Yrotation Zrotation
					JOINT RightToe_End
					{
						OFFSET -0.070227 0.081735 4.479403
						CHANNELS 3 Xrotation Yrotation Zrotation
						End Site
						{
							OFFSET 0.000000 0.000000 0.000000
						}
					}
				}
			}
		}
	}
}
MOTION
Frames: 4
Frame Time: 0.016667
-0.057729 15.954945 -7.982155 72.664921 -1.767534 -1.186145 0.751958 -0.163026 0.408128 1.989888 -0.361036 0.703952 0.000000 0.000000 0.000000 1.989574 -0.369637 0.705793 -9.204245 -0.704416 3.164578 0.129147 2.292099 -4.360971 0.000000 -0.000000 -0.000000 1.107187 -1.022675 0.366615 0.000000 0.000000 0.000000 -53.198185 -52.390208 -60.733803 0.000001 -9.465319 0.000010 10.586340 -19.105170 86.700413 -1.335224 3.247010 11.085639 10.126220 -4.458082 7.651887 1.077466 -7.608480 23.794129 -0.000003 -0.000000 0.000003 -4.827142 -13.400623 -17.576722 0.100491 1.081548 -10.616085 0.016778 -0.443531 4.332386 0.000002 -0.000000 0.000000 -3.573206 -14.167593 -13.089244 0.077328 0.949756 -9.309785 0.068712 0.895575 -8.774298 0.000002 0.000001 -0.000001 0.216171 -14.772465 -0.362650 0.436530 2.220940 -22.237330 0.478337 2.320455 -23.292584 -0.000001 0.000001 -0.000001 1.721913 3.722440 14.170337 0.000000 0.000000 0.000000 -57.852973 62.510438 58.216359 0.000003 10.622202 -0.000007 22.462822 6.417989 -82.516745 -0.201468 3.035650 -7.196447 8.074877 6.487048 -14.042710 5.826175 15.094097 -37.811463 0.000001 -0.000000 -0.000000 -3.768174 8.510252 18.931737 -0.000003 -0.000004 0.000006 0.115890 -1.033528 12.794586 0.000001 -0.000000 -0.000000 -0.238736 9.461325 1.884912 0.696250 -2.451510 31.705427 0.178744 -1.279161 15.908805 -0.000000 0.000000 0.000001 -0.642240 6.921375 4.616453 0.435036 -1.967190 24.937693 0.263196 -1.544950 19.334587 0.000001 -0.000000 -0.000004 0.285628 11.169825 3.307990 11.625064 5.757721 2.224358 -39.747572 3.988356 -5.405355 -34.131985 2.404694 -12.193629 0.000000 -0.000001 0.000000 -6.272443 -7.252821 -3.590891 20.333321 2.211536 -0.703348 -33.063272 -2.800369 4.204576 -46.482238 -2.464746 8.047108 0.000000 -0.000001 0.000000 
-0.061436 15.967020 -7.988899 72.691934 -1.774064 -1.188881 0.763485 -0.160453 0.403544 2.014342 -0.356034 0.696149 0.000000 0.000000 0.000000 2.017226 -0.364456 0.698349 -9.222172 -0.707646 3.170099 0.081691 2.286395 -4.356596 0.000000 -0.000000 -0.000000 1.106201 -1.019218 0.443749 0.000000 0.000000 0.000000 -53.325814 -52.446028 -60.786170 -0.000010 -9.373371 -0.000018 10.495924 -19.160190 86.594149 -1.335189 3.246640 11.086000 10.147849 -4.457478 7.634733 1.074231 -7.612219 23.792336 -0.000003 0.000001 -0.000006 -4.837814 -13.407070 -17.604536 0.100304 1.080579 -10.606305 0.016778 -0.443500 4.331907 0.000002 0.000000 0.000000 -3.580314 -14.174201 -13.107823 0.077270 0.949394 -9.306219 0.068570 0.894622 -8.764965 0.000001 -0.000000 -0.000000 0.214345 -14.770887 -0.368761 0.436217 2.220164 -22.229288 0.477997 2.319660 -23.283975 0.000001 0.000000 -0.000002 1.692446 3.818578 14.166776 0.000000 0.000000 0.000000 -57.419044 62.383041 57.737672 0.000011 11.015438 -0.000001 22.411382 6.229425 -82.455526 -0.201462 3.035667 -7.196441 8.074877 6.487021 -14.042707 5.825586 15.094259 -37.811302 0.000003 0.000000 -0.000000 -3.768113 8.510273 18.931749 -0.000006 -0.000004 0.000003 0.115886 -1.033527 12.794602 0.000000 -0.000000 0.000001 -0.238739 9.461337 1.884912 0.696248 -2.451514 31.705438 0.178747 -1.279158 15.908819 -0.000001 0.000000 0.000002 -0.642247 6.921373 4.616460 0.435036 -1.967179 24.937697 0.263190 -1.544950 19.334589 -0.000001 -0.000000 0.000002 0.250098 11.160358 3.302801 11.583126 5.821955 2.237719 -39.764716 3.988131 -5.400035 -34.108496 2.384051 -12.135078 0.000001 -0.000001 -0.000000 -6.309060 -7.247205 -3.564757 20.301533 2.167700 -0.694834 -33.062477 -2.791562 4.179650 -46.400146 -2.469619 8.089098 -0.000000 0.000000 -0.000000 
-0.066134 15.980625 -7.995659 72.721352 -1.772903 -1.191441 0.778670 -0.158889 0.396751 2.046981 -0.353058 0.686805 0.000000 0.000000 0.000000 2.059607 -0.360989 0.690021 -9.236214 -0.710648 3.176450 0.030647 2.283026 -4.346892 0.000001 -0.000000 -0.000000 1.109412 -1.047181 0.617127 0.000000 0.000000 0.000000 -53.300225 -52.427245 -60.726133 0.000004 -9.495816 0.000007 10.330548 -19.116398 86.488445 -1.335062 3.245432 11.087048 10.172719 -4.455052 7.614918 1.067667 -7.620495 23.794473 -0.000003 0.000003 -0.000005 -4.849315 -13.415385 -17.633332 0.101657 1.087813 -10.678340 0.016768 -0.443342 4.330532 -0.000002 0.000000 0.000001 -3.576269 -14.185617 -13.088184 0.077292 0.949512 -9.307357 0.068395 0.893535 -8.754092 0.000002 0.000000 -0.000001 0.213949 -14.771011 -0.370086 0.436396 2.220590 -22.233871 0.478080 2.319851 -23.286009 -0.000001 0.000001 -0.000001 1.608455 4.068149 14.154939 0.000000 0.000000 0.000000 -56.074798 61.951653 56.389249 -0.000004 12.166844 -0.000016 22.338103 5.692544 -82.256597 -0.201469 3.035664 -7.196439 8.074886 6.487039 -14.042704 5.823906 15.094699 -37.810910 -0.000002 -0.000002 -0.000002 -3.767919 8.510347 18.931770 0.000000 0.000001 0.000005 0.115888 -1.033530 12.794591 -0.000001 0.000000 -0.000000 -0.238736 9.461332 1.884911 0.696251 -2.451510 31.705438 0.178748 -1.279160 15.908790 0.000000 -0.000000 0.000002 -0.642241 6.921369 4.616451 0.435040 -1.967178 24.937705 0.263184 -1.544948 19.334582 0.000001 0.000000 -0.000001 0.215993 11.141361 3.293712 11.514544 5.888247 2.267368 -39.763995 3.990101 -5.398374 -34.115337 2.349772 -12.039048 0.000001 0.000001 -0.000000 -6.345409 -7.234801 -3.534580 20.262391 2.115880 -0.692661 -33.054899 -2.784313 4.160869 -46.328579 -2.472873 8.121287 -0.000000 0.000001 -0.000000 
-0.071993 15.995583 -8.002907 72.753884 -1.765036 -1.189592 0.796636 -0.158676 0.387790 2.085587 -0.352766 0.674648 0.000000 0.000000 0.000000 2.114182 -0.359899 0.679518 -9.245073 -0.712871 3.181723 -0.016077 2.281407 -4.334584 -0.000000 0.000000 0.000000 1.118092 -1.112108 0.870800 0.000000 0.000000 0.000000 -53.079688 -52.340361 -60.509192 0.000010 -9.849024 0.000008 10.082033 -18.967714 86.379463 -1.334857 3.243494 11.088822 10.184136 -4.450619 7.605709 1.083460 -7.594412 23.758183 -0.000003 0.000002 -0.000000 -4.864715 -13.431216 -17.667939 0.102163 1.090452 -10.704341 0.016736 -0.443112 4.328294 -0.000003 -0.000000 0.000000 -3.587268 -14.183180 -13.124469 0.077375 0.950031 -9.312541 0.068585 0.894789 -8.766439 0.000002 0.000001 -0.000002 0.201532 -14.788797 -0.413981 0.436856 2.221726 -22.245899 0.477234 2.317914 -23.265233 -0.000002 -0.000000 -0.000000 1.474309 4.460586 14.127447 0.000000 0.000000 0.000000 -54.128050 61.266517 54.462641 0.000005 13.832696 -0.000003 22.245091 4.915919 -81.969606 -0.201463 3.035666 -7.196443 8.074869 6.487032 -14.042704 5.821103 15.095440 -37.810233 0.000002 -0.000003 -0.000000 -3.767600 8.510459 18.931806 -0.000001 -0.000005 -0.000003 0.115889 -1.033524 12.794601 0.000001 -0.000000 -0.000001 -0.238735 9.461321 1.884904 0.696242 -2.451495 31.705438 0.178743 -1.279175 15.908803 -0.000001 0.000000 0.000002 -0.642241 6.921367 4.616429 0.435034 -1.967179 24.937731 0.263194 -1.544951 19.334577 0.000001 0.000000 -0.000001 0.189390 11.111071 3.275446 11.406422 5.953808 2.314072 -39.738409 3.994673 -5.405149 -34.143241 2.305465 -11.915548 -0.000001 -0.000000 0.000000 -6.390678 -7.215803 -3.506557 20.232200 2.061196 -0.697457 -33.049492 -2.779415 4.148801 -46.269020 -2.474466 8.140959 -0.000000 0.000001 -0.000000 
